<svg id="splitsvg" version="1.1" xmlns="http://www.w3.org/2000/svg" xmlns:xlink="http://www.w3.org/1999/xlink" width="1380" height="330"><g id="svgg"><path id="path0" d="M50.167 0.281 C 48.832 0.330,45.134 0.623,44.167 0.757 C 43.846 0.801,43.246 0.873,42.833 0.916 C 41.508 1.056,40.588 1.206,40.417 1.312 C 40.325 1.369,39.650 1.539,38.917 1.690 C 38.183 1.842,37.396 2.016,37.167 2.077 C 36.938 2.139,36.487 2.230,36.167 2.280 C 35.846 2.330,35.546 2.418,35.500 2.477 C 35.454 2.535,35.229 2.602,35.000 2.625 C 34.771 2.649,34.433 2.740,34.250 2.829 C 34.067 2.918,33.133 3.219,32.174 3.499 C 31.216 3.779,30.391 4.071,30.341 4.148 C 30.291 4.225,30.063 4.342,29.833 4.407 C 28.925 4.667,27.576 5.258,27.454 5.450 C 27.383 5.561,27.214 5.610,27.079 5.559 C 26.944 5.507,26.833 5.529,26.833 5.608 C 26.833 5.687,26.590 5.855,26.292 5.982 C 25.030 6.516,24.667 6.713,24.667 6.862 C 24.667 6.949,24.597 6.977,24.512 6.924 C 24.426 6.871,24.307 6.907,24.247 7.004 C 24.187 7.101,23.845 7.298,23.486 7.442 C 23.127 7.585,22.833 7.774,22.833 7.861 C 22.833 7.948,22.772 7.982,22.697 7.935 C 22.622 7.889,22.363 8.035,22.121 8.259 C 21.879 8.483,21.622 8.667,21.549 8.667 C 21.275 8.669,20.003 9.614,20.119 9.730 C 20.185 9.797,20.111 9.801,19.953 9.741 C 19.796 9.680,19.667 9.707,19.667 9.800 C 19.667 9.893,19.322 10.197,18.901 10.476 C 18.042 11.045,15.746 13.076,14.843 14.066 C 14.517 14.423,13.931 15.056,13.542 15.471 C 13.152 15.886,12.833 16.292,12.833 16.373 C 12.833 16.454,12.770 16.481,12.694 16.433 C 12.617 16.386,12.395 16.629,12.201 16.974 C 12.008 17.319,11.701 17.735,11.520 17.899 C 11.339 18.063,10.941 18.606,10.637 19.106 C 10.332 19.606,9.914 20.218,9.707 20.466 C 9.501 20.714,9.369 21.014,9.414 21.134 C 9.459 21.253,9.433 21.311,9.355 21.263 C 9.277 21.215,8.746 22.130,8.175 23.296 C 7.603 24.463,7.042 25.604,6.926 25.833 C 6.811 26.063,6.503 26.925,6.242 27.750 C 5.981 28.575,5.705 29.293,5.628 29.347 C 5.552 29.400,5.465 29.707,5.437 30.030 C 5.408 30.353,5.343 30.684,5.294 30.767 C 5.131 31.037,4.793 32.926,4.477 35.333 C 4.181 37.590,4.410 41.407,5.058 45.000 C 5.083 45.137,5.164 45.606,5.237 46.042 C 5.311 46.477,5.444 46.833,5.533 46.833 C 5.622 46.833,5.662 46.927,5.623 47.042 C 5.584 47.156,5.688 47.570,5.854 47.960 C 6.021 48.351,6.151 48.689,6.144 48.710 C 6.134 48.741,6.404 49.735,6.585 50.333 C 6.599 50.379,6.669 50.623,6.740 50.875 C 6.811 51.127,6.921 51.333,6.985 51.333 C 7.048 51.333,7.197 51.615,7.316 51.958 C 7.671 52.982,8.850 55.333,9.009 55.333 C 9.090 55.333,9.117 55.436,9.069 55.562 C 9.020 55.688,9.094 55.904,9.232 56.042 C 9.371 56.180,9.454 56.324,9.417 56.361 C 9.380 56.397,9.609 56.754,9.925 57.154 C 10.241 57.553,10.500 57.982,10.500 58.107 C 10.500 58.231,10.579 58.333,10.677 58.333 C 10.774 58.333,10.812 58.399,10.762 58.480 C 10.713 58.560,10.847 58.804,11.061 59.022 C 11.276 59.239,11.660 59.754,11.915 60.167 C 12.170 60.579,12.499 61.035,12.647 61.180 C 12.796 61.325,13.104 61.698,13.333 62.008 C 13.563 62.317,14.066 62.911,14.452 63.327 C 14.838 63.743,15.419 64.374,15.743 64.729 C 16.068 65.085,16.336 65.310,16.339 65.229 C 16.342 65.149,16.452 65.271,16.583 65.500 C 16.714 65.729,16.824 65.856,16.827 65.782 C 16.831 65.707,17.146 66.007,17.527 66.448 C 17.909 66.889,18.265 67.251,18.319 67.253 C 18.432 67.256,18.807 67.574,20.131 68.791 C 20.655 69.273,21.215 69.709,21.375 69.761 C 21.535 69.813,21.667 69.930,21.667 70.021 C 21.667 70.112,21.734 70.145,21.816 70.094 C 21.898 70.043,22.004 70.105,22.053 70.230 C 22.150 70.483,25.744 72.954,26.968 73.608 C 27.398 73.838,28.087 74.216,28.500 74.447 C 28.912 74.678,29.550 74.983,29.917 75.126 C 30.283 75.268,30.696 75.475,30.833 75.585 C 30.971 75.694,31.683 76.025,32.417 76.320 C 33.150 76.615,34.146 77.039,34.630 77.261 C 35.113 77.484,35.587 77.667,35.682 77.667 C 35.992 77.667,38.081 78.413,38.190 78.563 C 38.248 78.644,38.379 78.658,38.481 78.595 C 38.583 78.532,38.667 78.546,38.667 78.626 C 38.667 78.706,39.396 78.982,40.287 79.239 C 41.178 79.496,42.077 79.819,42.285 79.955 C 42.494 80.092,42.772 80.162,42.905 80.111 C 43.037 80.060,43.169 80.087,43.198 80.171 C 43.226 80.255,43.400 80.352,43.583 80.386 C 44.217 80.504,44.917 80.713,45.083 80.833 C 45.175 80.900,45.474 81.008,45.748 81.074 C 46.022 81.139,46.285 81.247,46.332 81.313 C 46.419 81.437,48.361 82.066,49.625 82.380 C 50.015 82.477,50.333 82.627,50.333 82.713 C 50.333 82.799,50.459 82.821,50.612 82.762 C 50.765 82.703,50.940 82.736,51.000 82.834 C 51.061 82.932,51.309 83.048,51.551 83.092 C 51.793 83.136,52.200 83.251,52.454 83.348 C 52.708 83.444,52.917 83.513,52.917 83.500 C 52.917 83.487,53.142 83.562,53.417 83.667 C 53.692 83.772,54.122 83.899,54.372 83.949 C 54.623 83.999,54.792 84.098,54.749 84.169 C 54.705 84.239,54.950 84.348,55.293 84.411 C 55.819 84.507,57.804 85.128,58.667 85.466 C 58.804 85.520,58.992 85.572,59.083 85.582 C 59.175 85.591,59.420 85.692,59.628 85.807 C 59.837 85.922,60.080 85.970,60.170 85.915 C 60.260 85.859,60.333 85.875,60.333 85.950 C 60.333 86.024,60.652 86.184,61.042 86.304 C 62.712 86.818,67.715 89.381,68.037 89.887 C 68.105 89.995,68.165 90.008,68.169 89.917 C 68.173 89.825,68.254 89.883,68.349 90.045 C 68.443 90.208,68.591 90.297,68.677 90.244 C 68.763 90.190,68.833 90.230,68.833 90.332 C 68.833 90.433,69.107 90.794,69.441 91.133 C 70.074 91.776,70.878 93.336,71.092 94.336 C 71.279 95.211,71.323 96.833,71.160 96.833 C 71.080 96.833,71.028 97.002,71.043 97.208 C 71.093 97.898,70.073 99.768,69.135 100.706 C 68.270 101.571,65.910 103.062,65.118 103.245 C 65.007 103.270,64.673 103.347,64.375 103.416 C 64.077 103.485,63.833 103.612,63.833 103.697 C 63.833 103.783,63.755 103.805,63.659 103.745 C 63.564 103.686,63.320 103.743,63.118 103.871 C 62.787 104.081,61.736 104.277,59.250 104.594 C 58.290 104.717,56.222 104.713,55.250 104.587 C 53.465 104.356,52.067 104.107,51.917 103.992 C 51.825 103.922,51.525 103.826,51.250 103.778 C 50.359 103.623,47.752 102.791,47.694 102.643 C 47.664 102.565,47.577 102.500,47.501 102.500 C 47.290 102.500,44.559 101.174,44.750 101.164 C 44.842 101.160,44.647 100.990,44.318 100.786 C 43.989 100.583,43.426 100.170,43.068 99.869 C 42.710 99.568,42.342 99.259,42.250 99.182 C 41.928 98.913,40.914 97.624,40.639 97.135 C 40.486 96.863,40.248 96.515,40.109 96.361 C 39.863 96.089,39.494 95.305,39.404 94.862 C 39.379 94.740,39.304 94.515,39.237 94.362 C 39.170 94.209,39.106 94.008,39.094 93.917 C 39.082 93.825,39.006 93.412,38.924 93.000 C 38.743 92.083,38.731 91.972,38.695 90.875 L 38.667 90.000 19.411 90.000 L 0.155 90.000 0.253 90.875 C 0.307 91.356,0.418 92.200,0.500 92.750 C 0.583 93.300,0.695 94.087,0.750 94.500 C 0.805 94.912,0.887 95.375,0.932 95.528 C 1.105 96.116,1.198 96.594,1.193 96.875 C 1.190 97.035,1.249 97.167,1.325 97.167 C 1.401 97.167,1.514 97.448,1.576 97.792 C 1.726 98.619,2.603 101.452,2.904 102.083 C 3.368 103.055,3.875 104.252,3.903 104.442 C 3.919 104.547,4.011 104.734,4.108 104.858 C 4.205 104.982,4.464 105.458,4.683 105.917 C 4.903 106.375,5.121 106.787,5.167 106.833 C 5.212 106.879,5.274 107.029,5.304 107.167 C 5.334 107.304,5.428 107.442,5.514 107.473 C 5.599 107.503,5.626 107.597,5.575 107.681 C 5.523 107.765,5.548 107.833,5.631 107.833 C 5.713 107.833,5.959 108.190,6.176 108.625 C 6.393 109.060,6.669 109.529,6.790 109.667 C 7.413 110.375,7.667 110.737,7.667 110.917 C 7.667 111.026,7.825 111.296,8.019 111.516 C 8.213 111.736,8.494 112.104,8.643 112.333 C 9.069 112.988,9.632 113.695,11.299 115.667 C 12.160 116.686,16.351 120.833,16.519 120.833 C 16.578 120.833,16.936 121.133,17.313 121.500 C 17.691 121.867,18.057 122.168,18.125 122.169 C 18.194 122.171,18.512 122.405,18.833 122.691 C 19.154 122.976,19.698 123.397,20.042 123.627 C 20.385 123.856,20.667 124.109,20.667 124.189 C 20.667 124.268,20.734 124.333,20.817 124.333 C 20.899 124.333,21.356 124.596,21.833 124.916 C 22.309 125.237,22.767 125.458,22.850 125.407 C 22.932 125.355,23.000 125.413,23.000 125.534 C 23.000 125.654,23.544 126.045,24.208 126.401 C 24.873 126.757,25.454 127.100,25.500 127.163 C 25.546 127.225,26.011 127.484,26.535 127.738 C 27.058 127.991,27.573 128.304,27.680 128.433 C 27.787 128.561,27.980 128.667,28.110 128.667 C 28.239 128.667,28.526 128.785,28.747 128.930 C 28.968 129.075,29.284 129.219,29.450 129.251 C 29.615 129.282,29.769 129.323,29.792 129.341 C 29.815 129.360,29.906 129.384,29.995 129.396 C 30.083 129.407,30.319 129.556,30.518 129.726 C 30.717 129.897,30.963 130.054,31.065 130.076 C 31.167 130.098,31.438 130.190,31.667 130.282 C 31.896 130.373,32.477 130.587,32.958 130.757 C 33.440 130.927,33.833 131.139,33.833 131.227 C 33.833 131.316,33.880 131.342,33.938 131.284 C 33.995 131.227,34.258 131.291,34.521 131.428 C 34.785 131.564,35.001 131.617,35.003 131.546 C 35.004 131.475,35.060 131.496,35.128 131.593 C 35.195 131.690,35.850 131.945,36.583 132.158 C 37.317 132.372,37.954 132.601,38.000 132.666 C 38.046 132.731,39.133 133.026,40.417 133.322 C 41.700 133.618,42.862 133.902,43.000 133.955 C 43.332 134.082,43.629 134.145,44.353 134.243 C 44.684 134.288,45.155 134.401,45.399 134.493 C 45.643 134.586,46.010 134.654,46.213 134.644 C 46.417 134.635,47.296 134.745,48.167 134.889 C 53.579 135.788,67.662 135.444,70.560 134.342 C 70.783 134.257,71.001 134.223,71.043 134.265 C 71.086 134.308,71.323 134.266,71.571 134.171 C 71.819 134.077,72.936 133.804,74.053 133.565 C 75.170 133.326,76.440 133.054,76.875 132.960 C 77.310 132.866,77.667 132.732,77.667 132.663 C 77.667 132.594,77.931 132.487,78.254 132.427 C 78.980 132.291,81.241 131.571,81.917 131.261 C 82.927 130.798,83.420 130.609,83.542 130.638 C 83.610 130.654,83.667 130.587,83.667 130.490 C 83.667 130.393,83.736 130.357,83.821 130.409 C 84.000 130.520,84.658 130.254,85.542 129.712 C 85.885 129.501,86.167 129.376,86.167 129.434 C 86.167 129.491,86.352 129.417,86.577 129.269 C 86.803 129.121,87.073 129.000,87.176 129.000 C 87.280 129.000,87.553 128.851,87.785 128.669 C 88.016 128.487,88.284 128.386,88.379 128.445 C 88.479 128.507,88.501 128.471,88.433 128.359 C 88.363 128.247,88.417 128.167,88.562 128.167 C 88.698 128.167,88.910 128.073,89.034 127.958 C 89.157 127.844,89.362 127.727,89.488 127.700 C 89.819 127.628,92.239 126.147,92.306 125.976 C 92.336 125.898,92.502 125.833,92.675 125.833 C 92.847 125.833,93.060 125.699,93.148 125.535 C 93.236 125.371,93.520 125.128,93.779 124.994 C 94.038 124.861,94.748 124.339,95.358 123.834 C 95.967 123.329,96.772 122.669,97.147 122.367 L 97.829 121.818 97.873 127.701 L 97.917 133.583 116.792 133.624 L 135.667 133.665 135.667 112.833 L 135.667 92.000 147.542 91.995 C 154.073 91.993,159.942 91.963,160.583 91.929 C 163.263 91.788,165.114 91.582,165.917 91.335 C 166.192 91.251,167.242 91.029,168.250 90.841 C 169.258 90.654,170.158 90.475,170.250 90.444 C 170.342 90.413,170.774 90.329,171.210 90.258 C 171.647 90.187,172.046 90.061,172.097 89.978 C 172.148 89.895,172.260 89.871,172.345 89.924 C 172.430 89.977,172.500 89.949,172.500 89.862 C 172.500 89.775,172.781 89.651,173.125 89.587 C 174.005 89.422,175.906 88.791,175.969 88.643 C 175.998 88.574,176.129 88.560,176.261 88.611 C 176.392 88.661,176.500 88.627,176.500 88.536 C 176.500 88.444,176.705 88.318,176.956 88.255 C 177.867 88.026,180.000 87.138,180.000 86.988 C 180.000 86.903,180.070 86.833,180.156 86.833 C 180.412 86.833,182.670 85.782,182.589 85.700 C 182.547 85.659,183.036 85.375,183.673 85.069 C 184.311 84.763,184.833 84.450,184.833 84.372 C 184.833 84.294,185.133 84.098,185.500 83.937 C 185.867 83.775,186.167 83.581,186.167 83.506 C 186.167 83.431,186.354 83.322,186.583 83.265 C 186.813 83.207,187.000 83.087,187.000 82.997 C 187.000 82.907,187.112 82.833,187.250 82.833 C 187.387 82.833,187.500 82.756,187.500 82.661 C 187.500 82.567,187.639 82.435,187.809 82.370 C 187.979 82.304,188.410 82.006,188.768 81.708 C 189.125 81.410,189.754 80.894,190.167 80.562 C 191.572 79.430,193.666 77.417,193.666 77.198 C 193.667 77.079,193.726 77.017,193.798 77.062 C 193.871 77.106,194.077 76.923,194.257 76.654 C 194.436 76.385,194.711 76.124,194.866 76.074 C 195.045 76.016,195.112 75.884,195.047 75.714 C 194.983 75.548,195.011 75.487,195.120 75.555 C 195.217 75.615,195.409 75.496,195.546 75.290 C 195.683 75.085,196.104 74.585,196.481 74.181 C 196.858 73.776,197.137 73.415,197.101 73.379 C 197.065 73.342,197.215 73.119,197.434 72.882 C 197.654 72.645,197.833 72.345,197.833 72.216 C 197.833 72.086,197.899 72.021,197.980 72.071 C 198.124 72.160,199.900 69.512,200.275 68.648 C 200.381 68.405,200.551 68.155,200.653 68.092 C 200.755 68.029,200.796 67.907,200.743 67.822 C 200.690 67.736,200.726 67.667,200.823 67.667 C 200.921 67.667,200.987 67.610,200.971 67.542 C 200.937 67.395,201.361 66.455,201.516 66.333 C 201.574 66.287,201.767 65.916,201.944 65.508 L 202.265 64.765 202.591 65.113 C 202.770 65.304,203.048 65.635,203.208 65.847 C 203.369 66.060,203.500 66.197,203.500 66.151 C 203.500 66.106,204.119 66.652,204.875 67.366 C 205.631 68.079,206.309 68.664,206.381 68.665 C 206.452 68.666,206.723 68.873,206.982 69.125 C 207.615 69.742,208.396 70.326,209.294 70.856 C 209.704 71.097,210.087 71.368,210.145 71.458 C 210.203 71.548,210.550 71.783,210.917 71.979 C 211.818 72.463,212.231 72.724,212.350 72.886 C 212.405 72.961,212.580 73.041,212.738 73.064 C 212.897 73.088,213.077 73.179,213.138 73.266 C 213.200 73.354,213.588 73.569,214.000 73.744 C 214.412 73.919,214.900 74.186,215.083 74.337 C 215.267 74.489,215.679 74.713,216.000 74.836 C 216.321 74.959,216.731 75.158,216.912 75.280 C 217.093 75.401,217.374 75.500,217.537 75.500 C 217.700 75.500,217.833 75.579,217.833 75.677 C 217.833 75.774,217.913 75.804,218.011 75.743 C 218.109 75.683,218.278 75.749,218.386 75.891 C 218.582 76.147,219.386 76.483,220.833 76.914 C 221.246 77.036,221.508 77.149,221.417 77.163 C 221.325 77.177,222.120 77.476,223.183 77.827 C 224.246 78.178,225.259 78.541,225.433 78.633 C 225.699 78.774,227.060 79.223,227.333 79.260 C 227.613 79.298,228.931 79.751,229.000 79.832 C 229.046 79.886,229.421 80.031,229.833 80.154 C 230.246 80.276,230.820 80.479,231.109 80.605 C 231.397 80.731,231.754 80.833,231.902 80.833 C 232.050 80.833,232.488 80.979,232.877 81.157 C 233.265 81.335,233.996 81.606,234.500 81.759 C 235.004 81.912,236.116 82.293,236.970 82.605 C 237.824 82.917,238.649 83.197,238.803 83.228 C 238.957 83.258,239.196 83.322,239.333 83.368 C 239.471 83.415,239.996 83.588,240.500 83.751 C 241.004 83.915,241.492 84.100,241.583 84.161 C 241.675 84.223,242.088 84.372,242.500 84.492 C 244.581 85.100,245.444 85.376,245.722 85.524 C 245.890 85.613,246.827 85.956,247.805 86.285 C 248.783 86.614,249.628 86.952,249.683 87.036 C 249.738 87.120,249.888 87.206,250.017 87.227 C 250.145 87.249,250.419 87.359,250.625 87.472 C 250.831 87.586,251.000 87.627,251.000 87.563 C 251.000 87.500,251.131 87.561,251.292 87.699 C 251.452 87.837,251.933 88.091,252.361 88.263 C 252.789 88.435,253.096 88.646,253.044 88.730 C 252.991 88.815,253.034 88.832,253.139 88.767 C 253.243 88.703,253.494 88.803,253.696 88.991 C 253.898 89.180,254.161 89.333,254.281 89.333 C 254.402 89.333,254.500 89.408,254.500 89.500 C 254.500 89.592,254.612 89.667,254.750 89.667 C 254.887 89.667,255.000 89.746,255.000 89.843 C 255.000 89.940,255.077 89.972,255.171 89.914 C 255.265 89.856,255.321 89.902,255.296 90.016 C 255.271 90.130,255.486 90.379,255.775 90.570 C 257.852 91.942,258.894 96.817,257.510 98.689 C 257.321 98.944,257.167 99.234,257.167 99.334 C 257.167 99.696,254.862 102.038,254.641 101.901 C 254.563 101.853,254.500 101.893,254.500 101.990 C 254.500 102.087,254.398 102.167,254.273 102.167 C 254.149 102.167,253.784 102.345,253.464 102.562 C 252.867 102.967,251.372 103.535,250.333 103.751 C 250.012 103.817,249.664 103.941,249.558 104.026 C 248.621 104.779,239.410 104.751,238.833 103.993 C 238.787 103.933,238.445 103.836,238.073 103.778 C 237.700 103.720,236.913 103.515,236.323 103.322 C 235.733 103.130,235.174 102.958,235.082 102.941 C 234.990 102.923,234.729 102.779,234.503 102.621 C 234.277 102.463,234.012 102.333,233.914 102.333 C 233.489 102.333,231.373 101.056,230.256 100.125 C 229.953 99.873,229.627 99.667,229.530 99.667 C 229.434 99.667,229.040 99.218,228.656 98.670 C 228.271 98.122,227.891 97.714,227.812 97.763 C 227.732 97.813,227.667 97.751,227.667 97.627 C 227.667 97.502,227.573 97.306,227.458 97.192 C 227.344 97.077,227.245 96.931,227.238 96.867 C 227.205 96.546,226.767 95.855,226.644 95.931 C 226.567 95.978,226.548 95.901,226.603 95.759 C 226.658 95.616,226.615 95.500,226.508 95.500 C 226.401 95.500,226.354 95.434,226.404 95.354 C 226.454 95.273,226.376 94.970,226.232 94.680 C 225.949 94.113,225.934 94.053,225.733 92.667 C 225.660 92.162,225.587 91.694,225.571 91.625 C 225.555 91.556,225.532 91.162,225.521 90.750 L 225.500 90.000 206.260 90.000 L 187.019 90.000 187.086 90.345 C 187.122 90.535,187.197 91.191,187.251 91.803 C 187.340 92.800,187.405 93.298,187.592 94.417 C 187.664 94.845,187.757 95.187,187.887 95.500 C 187.944 95.638,188.112 96.350,188.259 97.083 C 188.407 97.817,188.660 98.792,188.823 99.250 C 188.985 99.708,189.362 100.796,189.661 101.667 C 189.959 102.537,190.295 103.325,190.408 103.417 C 190.520 103.508,190.581 103.677,190.542 103.792 C 190.504 103.906,190.553 104.000,190.653 104.000 C 190.752 104.000,190.836 104.131,190.839 104.292 C 190.843 104.452,191.087 105.042,191.381 105.602 C 191.676 106.162,192.236 107.231,192.627 107.977 C 193.017 108.723,193.400 109.333,193.477 109.333 C 193.553 109.333,193.751 109.633,193.917 110.000 C 194.082 110.367,194.281 110.667,194.359 110.667 C 194.436 110.667,194.500 110.765,194.500 110.885 C 194.500 111.005,194.633 111.249,194.796 111.427 C 194.959 111.605,195.273 112.013,195.493 112.333 C 195.714 112.654,196.180 113.234,196.530 113.621 C 196.880 114.009,197.167 114.386,197.167 114.459 C 197.167 114.533,197.640 115.090,198.219 115.698 C 198.798 116.306,199.476 117.073,199.727 117.402 C 199.978 117.731,200.297 118.000,200.435 118.000 C 200.573 118.000,200.645 118.067,200.595 118.149 C 200.544 118.230,200.821 118.570,201.210 118.904 C 201.828 119.435,202.796 120.309,203.923 121.352 C 204.109 121.525,204.315 121.667,204.380 121.667 C 204.527 121.667,205.279 122.296,205.724 122.792 C 205.909 122.998,206.127 123.167,206.208 123.167 C 206.371 123.167,207.234 123.784,208.238 124.621 C 208.599 124.921,208.993 125.167,209.115 125.167 C 209.237 125.167,209.465 125.317,209.622 125.500 C 209.779 125.683,210.003 125.833,210.120 125.833 C 210.238 125.833,210.333 125.890,210.333 125.959 C 210.333 126.029,210.540 126.177,210.792 126.289 C 211.044 126.400,211.656 126.753,212.151 127.073 C 212.647 127.392,213.116 127.615,213.193 127.567 C 213.270 127.519,213.333 127.555,213.333 127.646 C 213.333 127.811,213.974 128.095,214.208 128.033 C 214.277 128.015,214.333 128.080,214.333 128.178 C 214.333 128.364,216.431 129.393,217.210 129.588 C 217.460 129.651,217.623 129.769,217.572 129.851 C 217.522 129.933,217.666 130.000,217.893 130.000 C 218.120 130.000,218.331 130.056,218.361 130.125 C 218.392 130.194,218.867 130.424,219.417 130.638 C 219.967 130.851,220.604 131.122,220.833 131.240 C 221.063 131.358,221.475 131.515,221.750 131.589 C 222.025 131.662,222.287 131.733,222.333 131.745 C 223.086 131.948,224.939 132.608,225.004 132.697 C 225.087 132.808,226.348 133.146,227.083 133.253 C 227.267 133.280,227.642 133.389,227.917 133.496 C 228.192 133.603,228.436 133.678,228.461 133.664 C 228.608 133.578,229.833 133.890,229.833 134.014 C 229.833 134.097,230.002 134.137,230.208 134.103 C 230.415 134.070,230.658 134.098,230.750 134.166 C 230.976 134.335,233.653 134.763,237.167 135.192 C 239.096 135.427,246.903 135.491,249.583 135.294 C 252.698 135.065,253.583 134.979,253.833 134.883 C 253.971 134.830,254.320 134.803,254.608 134.822 C 254.897 134.840,255.180 134.779,255.239 134.685 C 255.297 134.591,255.453 134.556,255.587 134.608 C 255.720 134.659,256.374 134.584,257.040 134.441 C 257.705 134.298,258.475 134.142,258.750 134.094 C 260.378 133.810,263.995 132.881,264.227 132.688 C 264.377 132.562,264.500 132.501,264.500 132.551 C 264.500 132.640,266.488 132.116,267.000 131.892 C 267.137 131.832,267.371 131.759,267.519 131.729 C 267.667 131.700,268.004 131.586,268.269 131.477 C 268.534 131.367,268.787 131.265,268.833 131.250 C 268.879 131.235,269.142 131.128,269.417 131.013 C 269.692 130.898,270.327 130.649,270.829 130.459 C 272.328 129.893,276.893 127.507,277.227 127.115 C 277.398 126.914,277.572 126.778,277.613 126.812 C 277.778 126.947,279.333 125.968,279.227 125.796 C 279.163 125.692,279.192 125.663,279.297 125.727 C 279.397 125.789,279.667 125.651,279.898 125.420 C 280.129 125.189,280.423 125.000,280.550 125.000 C 280.678 125.000,281.052 124.737,281.383 124.417 C 281.713 124.096,282.062 123.833,282.157 123.833 C 282.252 123.833,282.424 123.683,282.539 123.500 C 282.653 123.317,282.816 123.167,282.901 123.167 C 282.986 123.167,283.361 122.872,283.736 122.512 C 285.328 120.983,286.049 120.333,286.156 120.333 C 286.219 120.333,286.448 120.090,286.665 119.792 C 286.881 119.494,287.160 119.189,287.283 119.115 C 287.406 119.040,287.464 118.909,287.410 118.823 C 287.357 118.737,287.406 118.667,287.520 118.667 C 287.633 118.667,287.919 118.447,288.155 118.178 C 288.605 117.664,289.333 117.692,289.333 118.223 C 289.333 118.352,289.990 119.024,290.792 119.718 C 291.594 120.411,292.372 121.115,292.522 121.281 C 292.671 121.447,293.008 121.748,293.272 121.950 C 293.535 122.152,294.050 122.582,294.417 122.905 C 294.783 123.229,295.124 123.495,295.174 123.497 C 295.223 123.499,295.636 123.837,296.090 124.249 C 296.545 124.661,296.994 124.999,297.088 124.999 C 297.182 125.000,297.505 125.225,297.806 125.500 C 298.108 125.775,298.424 126.000,298.510 126.000 C 298.596 126.000,298.667 126.075,298.667 126.167 C 298.667 126.258,298.768 126.333,298.892 126.333 C 299.016 126.333,299.316 126.517,299.559 126.742 C 299.802 126.967,300.000 127.110,300.000 127.061 C 300.000 127.012,300.315 127.203,300.700 127.486 C 301.084 127.769,301.493 128.000,301.609 128.000 C 301.724 128.000,302.000 128.182,302.223 128.405 C 302.446 128.628,302.928 128.891,303.295 128.990 C 303.661 129.088,304.054 129.281,304.168 129.418 C 304.281 129.555,304.477 129.667,304.604 129.667 C 304.730 129.667,304.834 129.723,304.835 129.792 C 304.836 129.940,305.410 130.226,306.663 130.704 C 307.165 130.896,307.677 131.153,307.800 131.276 C 307.923 131.399,308.224 131.544,308.470 131.599 C 308.716 131.653,309.153 131.803,309.442 131.932 C 309.731 132.061,310.071 132.167,310.198 132.167 C 310.325 132.167,310.727 132.320,311.090 132.506 C 311.453 132.693,312.612 133.072,313.667 133.349 C 314.721 133.626,315.696 133.899,315.833 133.956 C 316.157 134.090,316.639 134.181,317.197 134.212 C 317.442 134.225,317.607 134.296,317.562 134.368 C 317.517 134.441,317.654 134.508,317.865 134.519 C 318.541 134.552,319.238 134.628,319.667 134.715 C 322.708 135.332,326.337 135.560,331.333 135.446 C 335.360 135.354,339.917 135.032,339.917 134.840 C 339.917 134.828,340.254 134.790,340.667 134.755 C 341.743 134.664,342.782 134.520,343.833 134.315 C 344.337 134.217,344.844 134.131,344.958 134.124 C 345.073 134.117,345.167 134.065,345.167 134.008 C 345.167 133.951,345.298 133.892,345.458 133.877 C 345.619 133.862,346.125 133.770,346.583 133.672 C 347.491 133.478,347.823 133.409,348.583 133.258 C 350.208 132.934,350.833 132.766,350.833 132.652 C 350.833 132.581,351.261 132.435,351.783 132.326 C 352.306 132.218,352.887 132.068,353.075 131.993 C 353.263 131.917,353.859 131.725,354.400 131.564 C 354.941 131.403,355.650 131.136,355.977 130.969 C 356.303 130.803,356.662 130.667,356.774 130.667 C 356.887 130.667,357.189 130.579,357.447 130.472 C 357.998 130.244,357.956 130.259,358.542 130.093 C 358.794 130.022,359.000 129.903,359.000 129.828 C 359.000 129.754,359.281 129.601,359.625 129.488 C 360.669 129.147,364.000 127.510,364.000 127.338 C 364.000 127.249,364.125 127.225,364.277 127.284 C 364.463 127.355,364.515 127.326,364.435 127.197 C 364.357 127.071,364.406 127.038,364.575 127.103 C 364.717 127.158,364.833 127.136,364.833 127.056 C 364.833 126.976,365.190 126.724,365.625 126.498 C 366.618 125.981,368.709 124.642,368.872 124.418 C 368.941 124.324,368.996 124.319,368.997 124.406 C 368.999 124.492,369.139 124.417,369.309 124.240 C 369.785 123.744,370.490 123.166,370.598 123.184 C 370.652 123.193,370.962 122.987,371.289 122.725 C 373.456 120.989,376.693 117.844,376.550 117.613 C 376.494 117.523,376.516 117.486,376.599 117.531 C 376.682 117.577,376.881 117.476,377.042 117.307 C 377.202 117.138,377.298 117.000,377.256 117.000 C 377.213 117.000,377.419 116.750,377.714 116.444 C 378.660 115.463,379.167 114.805,379.167 114.556 C 379.167 114.423,379.242 114.360,379.333 114.417 C 379.425 114.473,379.500 114.413,379.500 114.283 C 379.500 114.152,379.698 113.848,379.939 113.606 C 380.181 113.364,380.312 113.166,380.231 113.164 C 380.150 113.163,380.165 113.106,380.264 113.039 C 380.364 112.972,380.658 112.542,380.918 112.083 C 381.177 111.625,381.495 111.125,381.624 110.973 C 381.753 110.821,381.876 110.596,381.897 110.473 C 381.919 110.350,382.100 109.934,382.301 109.548 C 382.502 109.162,382.667 108.729,382.667 108.585 C 382.667 108.441,382.775 108.281,382.908 108.230 C 383.040 108.179,383.389 107.413,383.683 106.527 C 383.976 105.641,384.287 104.871,384.372 104.815 C 384.458 104.759,384.519 104.664,384.508 104.604 C 384.497 104.545,384.636 104.017,384.817 103.431 C 384.998 102.846,385.271 101.628,385.423 100.725 C 385.576 99.822,385.758 99.008,385.828 98.917 C 385.898 98.825,385.956 98.638,385.957 98.500 C 385.959 98.362,386.047 97.612,386.153 96.833 C 386.488 94.358,386.422 86.548,386.060 85.962 C 386.000 85.865,385.957 85.571,385.964 85.309 C 385.972 85.048,385.908 84.833,385.822 84.833 C 385.737 84.833,385.667 84.609,385.667 84.336 C 385.667 84.062,385.593 83.518,385.502 83.127 C 384.910 80.567,384.605 79.395,384.492 79.250 C 384.420 79.158,384.362 79.046,384.363 79.000 C 384.364 78.954,384.291 78.729,384.203 78.500 C 384.114 78.271,383.874 77.633,383.670 77.083 C 383.145 75.669,382.042 73.445,381.210 72.123 C 380.819 71.504,380.500 70.941,380.500 70.873 C 380.500 70.805,380.277 70.538,380.004 70.281 C 379.732 70.024,379.408 69.611,379.285 69.365 C 379.162 69.118,378.967 68.937,378.851 68.962 C 378.736 68.988,378.683 68.942,378.733 68.862 C 378.928 68.546,375.226 64.703,373.331 63.253 C 372.736 62.799,372.150 62.330,372.028 62.212 C 371.906 62.094,371.738 62.040,371.653 62.092 C 371.569 62.144,371.500 62.109,371.500 62.014 C 371.500 61.919,371.282 61.729,371.016 61.591 C 370.749 61.454,370.431 61.243,370.307 61.123 C 369.953 60.777,368.833 60.126,368.833 60.265 C 368.833 60.335,368.665 60.238,368.458 60.051 C 368.252 59.864,367.483 59.424,366.750 59.073 C 366.017 58.723,365.292 58.332,365.140 58.205 C 364.987 58.079,364.762 57.954,364.640 57.929 C 364.310 57.860,363.167 57.377,362.500 57.024 C 361.980 56.749,361.218 56.481,360.750 56.409 C 360.658 56.395,360.298 56.257,359.949 56.102 C 359.601 55.948,359.076 55.775,358.783 55.717 C 358.490 55.660,358.100 55.523,357.917 55.412 C 357.733 55.302,357.208 55.119,356.750 55.005 C 355.399 54.671,354.285 54.324,353.750 54.071 C 353.216 53.819,350.330 53.001,349.967 52.999 C 349.848 52.998,349.546 52.891,349.296 52.761 C 349.046 52.630,348.071 52.325,347.129 52.082 C 346.187 51.839,345.004 51.504,344.500 51.338 C 343.996 51.171,343.321 50.985,343.000 50.924 C 342.679 50.864,342.267 50.749,342.083 50.670 C 341.900 50.591,341.150 50.395,340.417 50.233 C 339.683 50.071,339.035 49.867,338.975 49.779 C 338.916 49.690,338.756 49.661,338.620 49.713 C 338.485 49.765,338.309 49.744,338.229 49.667 C 338.149 49.590,337.108 49.289,335.917 48.998 C 334.725 48.707,333.657 48.392,333.543 48.298 C 333.428 48.204,333.188 48.166,333.009 48.213 C 332.829 48.260,332.660 48.238,332.633 48.164 C 332.606 48.091,332.293 47.985,331.939 47.930 C 331.584 47.874,331.223 47.785,331.136 47.731 C 331.048 47.677,330.438 47.497,329.780 47.331 C 329.122 47.165,328.133 46.877,327.583 46.692 C 327.033 46.506,326.396 46.314,326.167 46.266 C 324.923 46.003,323.667 45.607,323.667 45.479 C 323.667 45.399,323.567 45.333,323.446 45.333 C 323.068 45.333,321.272 44.382,320.799 43.930 C 320.551 43.694,320.297 43.500,320.234 43.500 C 320.070 43.500,319.712 43.018,319.307 42.250 C 319.114 41.883,318.905 41.546,318.844 41.500 C 318.406 41.170,318.167 38.326,318.485 37.217 C 318.682 36.533,320.183 34.517,320.427 34.610 C 320.529 34.650,320.709 34.566,320.827 34.424 C 320.945 34.283,320.975 34.167,320.895 34.167 C 320.710 34.166,322.838 33.129,323.150 33.068 C 323.278 33.043,323.428 32.955,323.483 32.874 C 323.579 32.732,324.187 32.554,325.833 32.186 C 328.925 31.496,333.825 31.810,336.167 32.849 C 337.698 33.529,338.754 34.089,338.883 34.292 C 338.957 34.406,339.109 34.500,339.221 34.500 C 339.334 34.500,339.535 34.650,339.667 34.833 C 339.799 35.017,340.003 35.167,340.120 35.167 C 340.237 35.167,340.333 35.229,340.333 35.306 C 340.333 35.382,340.641 35.776,341.018 36.181 C 342.014 37.253,343.082 39.405,343.593 41.375 C 343.610 41.444,343.634 41.650,343.646 41.834 C 343.667 42.166,343.756 42.168,361.875 42.126 L 380.083 42.083 380.097 40.375 C 380.105 39.435,380.049 38.667,379.972 38.667 C 379.896 38.667,379.832 38.235,379.830 37.708 C 379.828 37.181,379.754 36.262,379.666 35.667 C 379.578 35.071,379.459 34.246,379.402 33.833 C 379.344 33.421,379.253 33.010,379.198 32.920 C 379.144 32.830,379.087 32.642,379.072 32.503 C 378.981 31.649,378.787 30.740,378.680 30.668 C 378.612 30.621,378.416 30.040,378.246 29.375 C 378.075 28.710,377.871 28.167,377.791 28.167 C 377.712 28.167,377.693 28.092,377.749 28.001 C 377.845 27.846,376.842 25.376,376.227 24.250 C 376.077 23.975,375.628 23.122,375.230 22.355 C 374.831 21.588,374.356 20.831,374.172 20.672 C 373.989 20.513,373.869 20.353,373.906 20.316 C 373.943 20.280,373.756 19.950,373.490 19.583 C 373.225 19.217,372.818 18.635,372.585 18.292 C 372.353 17.948,372.088 17.667,371.998 17.667 C 371.907 17.667,371.852 17.610,371.875 17.540 C 371.898 17.470,371.680 17.151,371.391 16.831 C 371.102 16.512,370.390 15.725,369.809 15.083 C 369.228 14.442,368.152 13.407,367.418 12.784 C 366.684 12.161,365.756 11.374,365.355 11.034 C 364.955 10.695,364.471 10.331,364.281 10.227 C 364.090 10.122,363.780 9.915,363.592 9.767 C 362.915 9.234,361.012 8.013,360.305 7.658 C 359.908 7.459,359.415 7.141,359.208 6.952 C 359.002 6.763,358.833 6.662,358.833 6.728 C 358.833 6.794,358.508 6.657,358.110 6.424 C 357.713 6.191,357.287 6.000,357.165 6.000 C 357.043 6.000,356.820 5.889,356.669 5.752 C 356.411 5.519,354.853 4.881,353.452 4.435 C 353.105 4.325,352.864 4.191,352.916 4.139 C 352.996 4.059,352.379 3.853,351.750 3.750 C 351.658 3.735,351.396 3.644,351.167 3.548 C 349.953 3.037,347.308 2.296,345.326 1.910 C 344.092 1.670,342.971 1.429,342.833 1.374 C 342.696 1.319,342.396 1.256,342.167 1.232 C 341.938 1.209,341.637 1.159,341.500 1.122 C 341.008 0.987,340.067 0.842,339.083 0.748 C 338.533 0.696,337.783 0.615,337.417 0.568 C 335.149 0.281,329.198 0.189,324.167 0.363 C 323.396 0.390,320.020 0.695,319.667 0.770 C 319.438 0.818,319.137 0.856,319.000 0.854 C 318.862 0.852,318.262 0.934,317.667 1.036 C 317.071 1.138,316.471 1.219,316.333 1.217 C 316.196 1.214,315.995 1.282,315.886 1.367 C 315.778 1.452,315.178 1.594,314.553 1.682 C 312.959 1.906,309.869 2.629,309.583 2.844 C 309.492 2.914,308.929 3.096,308.333 3.250 C 307.737 3.404,307.168 3.597,307.068 3.680 C 306.968 3.763,306.837 3.781,306.776 3.721 C 306.716 3.660,306.667 3.703,306.667 3.815 C 306.667 3.928,306.597 3.977,306.512 3.924 C 306.426 3.871,306.309 3.905,306.250 4.000 C 306.191 4.095,306.071 4.127,305.981 4.072 C 305.892 4.016,305.727 4.047,305.616 4.140 C 305.504 4.233,304.964 4.473,304.415 4.674 C 303.063 5.168,299.683 6.794,299.384 7.092 C 299.251 7.225,299.036 7.333,298.905 7.333 C 298.774 7.333,298.667 7.400,298.667 7.482 C 298.667 7.564,298.479 7.678,298.250 7.735 C 298.021 7.793,297.833 7.918,297.833 8.013 C 297.833 8.108,297.768 8.146,297.688 8.097 C 297.609 8.048,297.327 8.196,297.063 8.427 C 296.799 8.658,296.227 9.043,295.792 9.283 C 295.356 9.523,295.000 9.770,295.000 9.832 C 295.000 9.893,294.644 10.178,294.208 10.463 C 293.546 10.898,292.249 11.990,291.583 12.674 C 291.492 12.768,291.162 13.086,290.851 13.381 C 289.788 14.389,288.917 15.374,288.958 15.520 C 288.981 15.601,288.900 15.667,288.778 15.667 C 288.656 15.667,288.456 15.854,288.333 16.083 C 288.211 16.313,288.048 16.500,287.972 16.500 C 287.896 16.500,287.833 16.611,287.833 16.746 C 287.833 16.882,287.646 17.115,287.417 17.265 C 287.188 17.415,287.000 17.642,287.000 17.769 C 287.000 17.896,286.930 18.000,286.845 18.000 C 286.759 18.000,286.647 18.131,286.595 18.292 C 286.544 18.452,286.276 18.846,286.000 19.167 C 285.724 19.487,285.456 19.881,285.405 20.042 C 285.313 20.327,285.001 20.455,284.999 20.208 C 284.999 20.140,284.774 19.844,284.499 19.551 C 284.225 19.258,284.000 18.939,284.000 18.842 C 284.000 18.746,283.912 18.667,283.806 18.667 C 283.699 18.667,283.660 18.618,283.719 18.559 C 283.779 18.499,283.566 18.161,283.247 17.808 C 282.928 17.455,282.667 17.091,282.667 17.000 C 282.667 16.908,282.559 16.833,282.427 16.833 C 282.294 16.833,282.133 16.747,282.067 16.641 C 281.987 16.510,282.024 16.494,282.183 16.589 C 282.311 16.666,282.135 16.445,281.792 16.098 C 281.448 15.751,281.167 15.399,281.167 15.317 C 281.167 15.234,281.054 15.167,280.917 15.167 C 280.779 15.167,280.667 15.093,280.667 15.004 C 280.667 14.834,278.380 12.568,277.685 12.048 C 277.466 11.884,277.120 11.581,276.916 11.375 C 276.712 11.169,276.472 11.000,276.382 11.000 C 276.292 11.000,276.083 10.850,275.917 10.667 C 275.751 10.483,275.551 10.333,275.473 10.333 C 275.394 10.333,275.097 10.127,274.811 9.875 C 274.526 9.623,274.226 9.435,274.146 9.458 C 274.066 9.481,274.000 9.427,274.000 9.338 C 274.000 9.248,273.756 9.051,273.458 8.900 C 273.160 8.749,272.579 8.410,272.167 8.147 C 270.608 7.154,266.145 4.925,265.167 4.652 C 264.754 4.537,264.304 4.353,264.167 4.244 C 263.943 4.066,260.737 3.000,260.427 3.000 C 260.357 3.000,260.064 2.894,259.775 2.763 C 259.252 2.528,257.534 2.087,256.583 1.945 C 255.431 1.772,253.910 1.419,253.829 1.305 C 253.780 1.238,253.320 1.152,252.806 1.113 C 252.291 1.074,251.790 0.993,251.692 0.932 C 251.594 0.872,251.267 0.824,250.965 0.828 C 250.663 0.831,249.442 0.715,248.250 0.571 C 244.008 0.058,230.786 0.328,229.783 0.948 C 229.684 1.009,229.199 1.073,228.705 1.091 C 228.212 1.109,227.645 1.204,227.445 1.301 C 227.246 1.399,226.221 1.642,225.167 1.842 C 222.708 2.308,221.451 2.625,220.876 2.925 C 220.623 3.057,220.304 3.164,220.167 3.164 C 219.889 3.163,217.298 4.033,217.167 4.171 C 217.121 4.219,216.408 4.509,215.583 4.816 C 214.758 5.123,213.971 5.463,213.833 5.572 C 213.696 5.682,213.021 6.023,212.333 6.330 C 211.646 6.638,211.039 6.956,210.984 7.038 C 210.930 7.119,210.555 7.355,210.151 7.561 C 209.194 8.051,208.604 8.392,208.500 8.517 C 208.454 8.572,208.095 8.818,207.703 9.064 C 207.310 9.310,206.847 9.640,206.673 9.797 C 206.139 10.281,205.852 10.500,205.751 10.500 C 205.652 10.500,205.247 10.842,204.219 11.792 C 203.897 12.090,203.566 12.333,203.483 12.333 C 203.401 12.333,203.333 12.446,203.333 12.583 C 203.333 12.721,203.234 12.833,203.112 12.833 C 202.921 12.833,202.092 13.616,200.497 15.306 C 199.723 16.126,198.397 17.745,198.088 18.250 C 197.919 18.525,197.680 18.810,197.557 18.883 C 197.434 18.957,197.333 19.125,197.333 19.258 C 197.333 19.391,197.277 19.499,197.208 19.497 C 197.027 19.493,195.927 18.500,196.102 18.499 C 196.184 18.498,195.935 18.179,195.549 17.790 C 195.164 17.401,194.170 16.383,193.341 15.527 C 192.512 14.671,191.833 13.999,191.833 14.033 C 191.833 14.067,191.330 13.628,190.714 13.056 C 190.098 12.484,189.565 12.046,189.530 12.082 C 189.494 12.118,189.266 11.960,189.024 11.732 C 188.782 11.503,188.133 11.024,187.583 10.667 C 187.033 10.310,186.443 9.892,186.271 9.738 C 186.100 9.585,185.462 9.207,184.855 8.899 C 184.247 8.592,183.825 8.333,183.917 8.326 C 184.008 8.318,183.896 8.230,183.667 8.130 C 183.438 8.030,183.194 7.960,183.125 7.974 C 183.056 7.988,183.000 7.940,183.000 7.868 C 183.000 7.795,182.662 7.596,182.250 7.426 C 181.838 7.256,181.500 7.059,181.500 6.988 C 181.500 6.887,180.638 6.515,180.167 6.413 C 179.952 6.366,178.723 5.742,178.500 5.566 C 178.362 5.458,177.612 5.168,176.833 4.922 C 176.054 4.676,175.229 4.398,175.000 4.305 C 174.771 4.212,174.546 4.136,174.500 4.137 C 174.454 4.138,174.323 4.061,174.208 3.965 C 174.094 3.870,174.000 3.840,174.000 3.898 C 174.000 3.957,173.756 3.903,173.458 3.779 C 173.160 3.656,172.354 3.424,171.667 3.264 C 170.979 3.105,170.267 2.907,170.083 2.825 C 169.555 2.589,166.824 2.130,166.479 2.220 C 166.307 2.265,166.167 2.246,166.167 2.178 C 166.167 1.986,163.186 1.657,160.458 1.548 C 159.106 1.494,158.000 1.386,158.000 1.308 C 158.000 1.230,157.794 1.174,157.542 1.183 L 157.083 1.200 157.500 1.333 C 157.857 1.448,157.868 1.469,157.575 1.483 C 157.387 1.493,157.158 1.425,157.066 1.333 C 156.955 1.222,146.957 1.180,127.408 1.208 L 97.917 1.250 97.831 10.667 C 97.784 15.846,97.728 19.986,97.706 19.868 C 97.673 19.688,96.449 17.940,96.165 17.667 C 96.118 17.621,95.742 17.171,95.331 16.668 C 94.920 16.164,94.178 15.346,93.682 14.850 C 93.186 14.354,92.886 14.011,93.015 14.089 C 93.216 14.210,93.217 14.190,93.018 13.945 C 92.890 13.787,92.750 13.694,92.707 13.738 C 92.663 13.781,92.308 13.483,91.917 13.075 C 91.526 12.667,91.141 12.333,91.060 12.333 C 90.979 12.333,90.820 12.183,90.705 12.000 C 90.591 11.817,90.419 11.667,90.324 11.667 C 90.228 11.667,89.876 11.400,89.540 11.075 C 89.205 10.749,88.646 10.323,88.299 10.127 C 87.951 9.932,87.667 9.718,87.667 9.652 C 87.667 9.586,87.245 9.281,86.729 8.974 C 86.213 8.668,85.380 8.173,84.878 7.875 C 84.375 7.577,83.887 7.333,83.793 7.333 C 83.699 7.333,83.441 7.139,83.221 6.901 C 82.994 6.656,82.716 6.510,82.577 6.563 C 82.443 6.614,82.333 6.589,82.333 6.506 C 82.333 6.423,82.165 6.298,81.958 6.228 C 81.752 6.157,81.546 6.086,81.500 6.069 C 81.454 6.052,81.248 5.984,81.042 5.916 C 80.835 5.849,80.667 5.740,80.667 5.674 C 80.667 5.607,80.123 5.340,79.458 5.081 C 78.794 4.821,77.987 4.495,77.667 4.356 C 77.346 4.217,77.008 4.096,76.917 4.086 C 76.825 4.076,76.600 3.985,76.417 3.884 C 76.233 3.783,75.746 3.605,75.333 3.487 C 74.475 3.242,74.581 3.270,73.875 3.102 C 73.577 3.031,73.333 2.920,73.333 2.856 C 73.333 2.737,72.965 2.662,72.138 2.611 C 71.894 2.597,71.728 2.549,71.771 2.507 C 71.868 2.409,69.041 1.726,67.917 1.575 C 67.458 1.513,67.007 1.401,66.914 1.327 C 66.742 1.189,65.969 1.062,64.351 0.908 C 63.856 0.861,63.402 0.792,63.342 0.755 C 63.282 0.718,62.412 0.637,61.408 0.575 C 60.404 0.513,59.534 0.433,59.475 0.398 C 59.335 0.315,51.803 0.220,50.167 0.281 M387.764 23.090 C 387.222 23.227,386.667 23.431,386.530 23.544 C 386.394 23.657,386.237 23.741,386.183 23.730 C 385.988 23.689,385.576 23.896,385.083 24.281 C 384.463 24.765,384.313 24.871,383.919 25.094 C 383.747 25.192,383.526 25.416,383.428 25.592 C 383.330 25.768,383.086 26.063,382.886 26.248 C 382.686 26.432,382.499 26.690,382.470 26.819 C 382.441 26.949,382.280 27.199,382.112 27.374 C 381.945 27.549,381.849 27.799,381.899 27.930 C 381.949 28.060,381.923 28.167,381.841 28.167 C 381.760 28.167,381.644 28.392,381.583 28.667 C 381.523 28.942,381.406 29.167,381.323 29.167 C 381.241 29.167,381.199 29.389,381.231 29.660 C 381.262 29.932,381.227 30.176,381.153 30.202 C 380.746 30.347,380.918 35.000,381.331 35.000 C 381.402 35.000,381.543 35.327,381.643 35.727 C 381.744 36.126,381.940 36.548,382.080 36.664 C 382.219 36.779,382.333 37.009,382.333 37.173 C 382.333 37.338,382.390 37.497,382.458 37.528 C 382.527 37.558,382.909 37.977,383.307 38.458 C 383.704 38.938,384.286 39.453,384.598 39.602 C 384.911 39.750,385.167 39.937,385.167 40.017 C 385.167 40.488,389.131 41.565,390.667 41.511 C 390.804 41.506,391.200 41.501,391.546 41.500 C 391.892 41.499,392.304 41.428,392.462 41.343 C 392.621 41.258,393.119 41.104,393.570 41.001 C 394.732 40.736,397.667 38.900,397.667 38.438 C 397.667 38.341,398.045 37.847,398.437 37.432 C 399.203 36.620,400.325 32.329,399.936 31.697 C 399.897 31.635,399.821 31.096,399.767 30.500 C 399.712 29.904,399.552 29.117,399.411 28.750 C 399.270 28.383,399.111 27.952,399.058 27.792 C 399.005 27.631,398.882 27.500,398.786 27.500 C 398.690 27.500,398.657 27.455,398.712 27.399 C 398.768 27.343,398.744 27.212,398.659 27.107 C 398.574 27.002,398.251 26.579,397.942 26.167 C 397.632 25.754,397.288 25.437,397.177 25.462 C 397.066 25.488,397.018 25.440,397.069 25.356 C 397.155 25.218,396.161 24.333,395.921 24.333 C 395.865 24.333,395.667 24.192,395.482 24.019 C 394.425 23.034,390.070 22.510,387.764 23.090 M391.266 24.541 C 391.349 24.592,391.679 24.659,392.000 24.690 C 393.643 24.849,396.833 27.455,396.833 28.639 C 396.833 28.709,396.923 28.856,397.032 28.965 C 397.141 29.074,397.248 29.258,397.269 29.373 C 397.291 29.489,397.389 29.987,397.488 30.481 C 397.794 32.017,397.457 35.167,396.987 35.167 C 396.902 35.167,396.833 35.354,396.833 35.583 C 396.833 35.813,396.767 36.000,396.686 36.000 C 396.604 36.000,396.411 36.267,396.256 36.593 C 396.102 36.920,395.868 37.228,395.738 37.278 C 395.608 37.327,395.537 37.424,395.579 37.493 C 395.621 37.562,395.471 37.702,395.245 37.805 C 395.018 37.908,394.833 38.064,394.833 38.151 C 394.833 38.413,393.010 39.315,392.101 39.502 C 390.112 39.913,387.103 39.266,386.309 38.257 C 386.126 38.024,385.903 37.833,385.813 37.833 C 385.673 37.833,385.317 37.486,384.669 36.715 C 384.576 36.605,384.500 36.436,384.500 36.340 C 384.500 36.245,384.431 36.167,384.347 36.167 C 384.158 36.167,383.565 34.379,383.379 33.250 C 383.130 31.743,383.653 28.704,384.267 28.090 C 384.395 27.962,384.500 27.793,384.500 27.716 C 384.500 27.638,384.631 27.456,384.792 27.311 C 384.952 27.166,385.202 26.906,385.347 26.732 C 386.204 25.706,388.246 24.624,389.285 24.645 C 389.579 24.651,389.853 24.602,389.894 24.536 C 389.979 24.399,391.041 24.403,391.266 24.541 M386.750 32.231 L 386.750 37.778 387.556 37.814 C 388.789 37.871,388.833 37.784,388.833 35.313 L 388.833 33.167 389.553 33.167 C 390.218 33.167,390.300 33.216,390.647 33.833 C 390.853 34.200,391.104 34.500,391.205 34.500 C 391.306 34.500,391.340 34.549,391.279 34.610 C 391.219 34.670,391.236 34.801,391.317 34.901 C 391.399 35.001,391.670 35.458,391.920 35.917 C 392.842 37.604,393.091 37.833,393.999 37.833 C 394.447 37.833,394.862 37.755,394.922 37.658 C 395.028 37.487,394.569 36.332,394.330 36.167 C 394.264 36.121,394.001 35.683,393.746 35.193 C 393.491 34.704,393.186 34.266,393.069 34.221 C 392.951 34.176,392.900 34.020,392.956 33.876 C 393.017 33.714,392.988 33.654,392.881 33.721 C 392.784 33.781,392.660 33.662,392.605 33.456 C 392.432 32.812,392.488 32.667,392.911 32.667 C 393.468 32.667,394.436 31.784,394.676 31.056 C 394.845 30.543,394.837 29.972,394.637 28.375 C 394.623 28.260,394.536 28.167,394.444 28.167 C 394.353 28.167,394.327 28.118,394.387 28.058 C 394.519 27.926,393.523 27.167,393.218 27.167 C 393.098 27.167,393.000 27.086,393.000 26.987 C 393.000 26.889,392.794 26.830,392.542 26.856 C 392.289 26.883,392.004 26.855,391.907 26.796 C 391.811 26.736,390.611 26.686,389.241 26.686 L 386.750 26.684 386.750 32.231 M392.206 28.464 C 392.339 28.574,392.497 28.614,392.557 28.554 C 392.617 28.494,392.667 28.607,392.667 28.806 C 392.667 29.004,392.742 29.167,392.833 29.167 C 392.925 29.167,393.000 29.517,393.000 29.944 C 393.000 30.372,392.958 30.680,392.906 30.629 C 392.855 30.577,392.627 30.707,392.401 30.917 C 392.130 31.168,391.867 31.267,391.635 31.207 C 391.393 31.143,391.319 31.175,391.400 31.307 C 391.487 31.447,391.151 31.500,390.177 31.500 L 388.833 31.500 388.833 29.813 L 388.833 28.127 390.399 28.195 C 391.270 28.233,392.073 28.353,392.206 28.464 M54.435 31.827 C 55.258 31.634,60.019 32.503,60.513 32.936 C 60.658 33.063,60.838 33.167,60.914 33.167 C 61.206 33.167,62.833 34.018,62.833 34.172 C 62.833 34.261,62.946 34.333,63.083 34.333 C 63.221 34.333,63.333 34.408,63.333 34.500 C 63.333 34.592,63.428 34.667,63.543 34.667 C 64.007 34.667,66.288 37.426,66.607 38.375 C 66.661 38.535,66.760 38.667,66.826 38.667 C 67.016 38.667,67.757 41.243,67.683 41.649 C 67.596 42.133,68.454 42.162,82.958 42.164 L 97.833 42.167 97.833 52.833 C 97.833 58.700,97.796 63.500,97.750 63.500 C 97.704 63.500,97.535 63.384,97.375 63.243 C 96.569 62.531,95.613 61.831,95.543 61.901 C 95.467 61.978,95.280 61.853,94.694 61.333 C 94.539 61.196,94.226 60.989,93.998 60.873 C 93.770 60.758,93.358 60.519,93.083 60.344 C 92.808 60.168,92.448 60.019,92.282 60.012 C 92.116 60.005,92.019 59.937,92.066 59.861 C 92.113 59.785,91.580 59.466,90.881 59.153 C 90.182 58.840,89.529 58.505,89.430 58.408 C 89.331 58.312,88.612 57.980,87.833 57.669 C 87.054 57.359,86.368 57.033,86.308 56.945 C 86.249 56.857,86.076 56.832,85.925 56.890 C 85.773 56.949,85.689 56.932,85.737 56.855 C 85.785 56.777,85.058 56.463,84.120 56.158 C 83.183 55.853,82.267 55.511,82.083 55.399 C 81.900 55.287,80.962 54.990,80.000 54.740 C 79.037 54.490,78.212 54.235,78.167 54.173 C 78.121 54.112,77.183 53.814,76.083 53.511 C 74.983 53.208,73.558 52.786,72.917 52.573 C 72.275 52.361,71.545 52.150,71.294 52.105 C 71.044 52.060,70.775 51.984,70.697 51.935 C 70.619 51.887,70.309 51.804,70.009 51.752 C 69.708 51.699,69.213 51.551,68.908 51.424 C 68.372 51.200,64.874 50.266,63.973 50.106 C 63.729 50.063,63.367 49.940,63.168 49.834 C 62.970 49.728,62.701 49.682,62.570 49.732 C 62.440 49.782,62.333 49.757,62.333 49.677 C 62.333 49.596,61.346 49.297,60.138 49.012 C 58.931 48.727,57.862 48.427,57.763 48.345 C 57.664 48.263,57.058 48.082,56.417 47.941 C 55.324 47.701,54.677 47.527,51.750 46.682 C 51.108 46.497,49.984 46.186,49.251 45.992 C 48.518 45.797,47.869 45.559,47.809 45.461 C 47.749 45.364,47.564 45.337,47.397 45.401 C 47.230 45.465,47.145 45.466,47.208 45.403 C 47.271 45.340,46.876 45.077,46.330 44.819 C 44.838 44.113,42.399 41.401,42.749 40.836 C 42.798 40.755,42.768 40.646,42.681 40.592 C 42.228 40.312,42.364 36.833,42.827 36.833 C 42.902 36.833,43.080 36.543,43.222 36.189 C 43.371 35.816,43.783 35.310,44.198 34.990 C 44.593 34.685,45.050 34.301,45.213 34.136 C 45.518 33.828,46.845 33.167,47.158 33.167 C 47.254 33.167,47.333 33.094,47.333 33.005 C 47.333 32.916,47.446 32.887,47.583 32.940 C 47.721 32.992,47.833 32.961,47.833 32.869 C 47.833 32.741,49.034 32.361,50.333 32.078 C 50.436 32.056,53.107 31.819,53.625 31.786 C 53.831 31.773,54.001 31.685,54.003 31.590 C 54.004 31.494,54.069 31.517,54.146 31.639 C 54.224 31.762,54.354 31.846,54.435 31.827 M243.750 31.991 C 245.301 32.224,247.010 32.636,247.252 32.836 C 247.345 32.912,247.832 33.130,248.335 33.319 C 248.838 33.508,249.509 33.886,249.826 34.158 C 250.143 34.430,250.431 34.625,250.464 34.591 C 250.625 34.430,253.035 37.063,253.138 37.512 C 253.168 37.643,253.293 37.862,253.415 38.000 C 253.810 38.443,254.654 41.395,254.527 41.887 C 254.508 41.963,254.569 41.977,254.663 41.919 C 254.756 41.861,254.833 41.893,254.833 41.990 C 254.833 42.113,258.662 42.167,267.383 42.167 C 280.187 42.167,280.446 42.179,280.215 42.782 C 280.164 42.914,280.200 43.186,280.294 43.386 C 280.389 43.586,280.634 44.612,280.838 45.667 C 281.043 46.721,281.325 47.846,281.464 48.167 C 281.604 48.487,281.703 48.818,281.684 48.901 C 281.665 48.985,281.713 49.097,281.791 49.151 C 281.869 49.206,282.030 49.583,282.149 49.990 C 282.268 50.397,282.424 50.885,282.496 51.073 C 282.568 51.262,282.617 51.465,282.605 51.524 C 282.593 51.583,282.733 51.802,282.917 52.011 C 283.112 52.234,283.147 52.333,283.000 52.250 C 282.792 52.133,282.794 52.163,283.014 52.430 C 283.159 52.606,283.447 53.163,283.655 53.667 C 283.862 54.171,284.152 54.771,284.299 55.000 C 284.446 55.229,284.824 55.904,285.139 56.500 C 285.453 57.096,285.851 57.718,286.022 57.881 C 286.193 58.045,286.333 58.283,286.333 58.410 C 286.333 58.537,286.577 58.887,286.875 59.187 C 287.173 59.487,287.304 59.666,287.167 59.584 C 286.931 59.444,287.141 59.811,287.501 60.167 C 287.547 60.212,287.796 60.533,288.054 60.878 C 288.311 61.224,288.715 61.711,288.950 61.962 C 289.186 62.212,289.500 62.604,289.648 62.833 C 290.055 63.464,292.320 65.794,293.149 66.434 C 293.552 66.745,293.833 67.000,293.775 67.000 C 293.717 67.000,293.832 67.187,294.031 67.417 C 294.230 67.646,294.490 67.833,294.608 67.833 C 294.727 67.833,294.990 68.058,295.193 68.333 C 295.396 68.608,295.642 68.834,295.740 68.835 C 295.837 68.836,296.193 69.098,296.531 69.418 C 296.868 69.738,297.186 70.000,297.237 70.000 C 297.289 70.000,297.658 70.244,298.059 70.542 C 299.335 71.489,299.713 71.750,299.816 71.752 C 299.871 71.753,300.263 71.994,300.687 72.287 C 301.111 72.580,301.517 72.767,301.589 72.702 C 301.661 72.637,301.669 72.672,301.608 72.780 C 301.500 72.967,302.083 73.278,302.387 73.196 C 302.463 73.175,302.482 73.228,302.429 73.313 C 302.377 73.398,302.562 73.547,302.841 73.644 C 303.120 73.742,303.574 73.982,303.850 74.179 C 304.127 74.375,304.392 74.497,304.440 74.449 C 304.488 74.401,304.661 74.495,304.825 74.658 C 304.988 74.822,305.488 75.093,305.936 75.261 C 306.384 75.429,306.787 75.616,306.833 75.676 C 306.938 75.814,308.488 76.500,308.695 76.500 C 308.779 76.500,309.313 76.716,309.882 76.980 C 310.451 77.244,311.585 77.663,312.401 77.910 C 313.218 78.158,314.043 78.459,314.235 78.580 C 314.426 78.701,314.846 78.860,315.167 78.933 C 315.914 79.102,315.835 79.077,316.417 79.320 C 316.692 79.435,317.160 79.570,317.458 79.620 C 317.756 79.670,318.000 79.770,318.000 79.843 C 318.000 79.916,318.431 80.101,318.958 80.253 C 319.485 80.405,320.554 80.752,321.333 81.023 C 323.677 81.841,325.737 82.498,325.958 82.499 C 326.073 82.500,326.167 82.569,326.167 82.653 C 326.167 82.777,326.631 82.947,327.333 83.080 C 327.739 83.158,330.458 84.083,330.600 84.192 C 330.701 84.270,330.982 84.349,331.225 84.369 C 331.468 84.390,331.667 84.465,331.667 84.536 C 331.667 84.608,331.850 84.667,332.073 84.667 C 332.297 84.667,332.519 84.729,332.566 84.805 C 332.613 84.881,333.067 85.037,333.576 85.150 C 334.084 85.264,334.500 85.431,334.500 85.522 C 334.500 85.612,334.570 85.643,334.655 85.590 C 334.740 85.538,334.851 85.560,334.901 85.641 C 334.951 85.722,335.350 85.885,335.787 86.003 C 336.225 86.121,336.677 86.291,336.792 86.380 C 336.906 86.468,337.000 86.493,337.000 86.434 C 337.000 86.375,337.297 86.478,337.660 86.663 C 338.023 86.848,338.436 87.000,338.577 87.000 C 338.718 87.000,338.833 87.070,338.833 87.155 C 338.833 87.298,339.345 87.536,339.750 87.583 C 340.042 87.617,341.823 88.515,341.925 88.680 C 341.979 88.767,342.093 88.796,342.178 88.743 C 342.264 88.690,342.333 88.708,342.333 88.782 C 342.333 88.856,342.690 89.104,343.125 89.331 C 344.451 90.025,346.398 92.152,346.576 93.102 C 346.634 93.412,346.735 93.667,346.799 93.667 C 346.919 93.667,346.937 93.832,347.013 95.583 C 347.064 96.776,346.728 98.412,346.305 99.026 C 346.137 99.269,346.000 99.588,346.000 99.734 C 346.000 99.880,345.897 100.000,345.771 100.000 C 345.646 100.000,345.375 100.244,345.170 100.542 C 344.813 101.061,343.339 102.098,342.546 102.389 C 342.337 102.465,342.167 102.590,342.167 102.667 C 342.167 102.772,340.360 103.484,339.833 103.586 C 339.198 103.709,338.549 103.897,338.417 103.997 C 338.036 104.284,334.993 104.675,333.083 104.682 C 331.564 104.688,328.086 104.250,327.576 103.989 C 327.389 103.893,327.126 103.793,326.993 103.766 C 325.895 103.551,323.993 102.928,323.225 102.531 C 322.872 102.349,322.246 102.031,321.833 101.826 C 321.421 101.620,320.915 101.300,320.709 101.114 C 320.503 100.928,320.289 100.822,320.234 100.877 C 320.178 100.933,319.952 100.814,319.730 100.614 C 318.109 99.147,316.980 97.941,316.571 97.239 C 316.308 96.787,315.957 96.268,315.790 96.087 C 315.623 95.905,315.444 95.568,315.392 95.337 C 315.340 95.106,315.178 94.504,315.033 94.000 C 314.887 93.496,314.787 93.015,314.809 92.932 C 314.832 92.849,314.769 92.730,314.669 92.668 C 314.566 92.605,314.481 92.004,314.473 91.278 L 314.458 90.000 305.896 90.000 L 297.333 90.000 297.322 89.375 C 297.309 88.673,297.272 88.311,296.917 85.500 C 296.762 84.266,296.614 83.392,296.539 83.267 C 296.490 83.184,296.425 82.847,296.396 82.518 C 296.366 82.189,296.265 81.894,296.171 81.863 C 296.077 81.831,296.000 81.671,296.000 81.507 C 296.000 81.343,295.884 80.880,295.742 80.479 C 295.601 80.078,295.458 79.528,295.427 79.256 C 295.395 78.984,295.290 78.736,295.194 78.703 C 295.097 78.671,295.058 78.543,295.106 78.419 C 295.153 78.295,295.095 78.018,294.977 77.805 C 294.859 77.591,294.752 77.379,294.741 77.333 C 294.729 77.287,294.595 76.971,294.443 76.630 C 294.291 76.290,294.167 75.933,294.167 75.839 C 294.167 75.744,294.087 75.667,293.990 75.667 C 293.893 75.667,293.850 75.607,293.895 75.535 C 294.002 75.362,293.498 74.311,293.172 74.029 C 293.008 73.888,292.999 73.851,293.147 73.928 C 293.274 73.993,293.180 73.756,292.939 73.401 C 292.697 73.046,292.500 72.663,292.500 72.550 C 292.500 72.437,292.289 72.099,292.031 71.797 C 291.773 71.496,291.361 70.899,291.114 70.470 C 290.868 70.041,290.570 69.591,290.452 69.470 C 290.334 69.349,290.038 68.987,289.793 68.667 C 289.180 67.863,286.167 64.732,286.167 64.900 C 286.167 64.975,285.923 64.740,285.625 64.379 C 285.327 64.017,284.729 63.507,284.296 63.245 C 283.863 62.984,283.542 62.736,283.582 62.696 C 283.657 62.621,282.171 61.583,281.990 61.583 C 281.935 61.583,281.672 61.413,281.404 61.206 C 280.506 60.510,278.966 59.668,278.790 59.777 C 278.692 59.837,278.664 59.805,278.726 59.705 C 278.793 59.598,278.385 59.313,277.710 58.994 C 277.090 58.702,276.546 58.410,276.500 58.344 C 276.454 58.279,275.704 57.943,274.833 57.598 C 273.962 57.252,273.175 56.911,273.083 56.840 C 272.992 56.769,272.392 56.549,271.750 56.351 C 269.654 55.704,269.418 55.621,269.333 55.507 C 269.287 55.445,268.612 55.223,267.833 55.013 C 267.054 54.803,266.042 54.508,265.583 54.358 C 265.125 54.208,264.651 54.096,264.531 54.109 C 264.410 54.123,264.357 54.088,264.412 54.032 C 264.507 53.937,263.338 53.562,261.667 53.153 C 260.628 52.898,260.448 52.861,260.198 52.846 C 260.072 52.839,260.031 52.745,260.100 52.625 C 260.166 52.510,260.163 52.468,260.093 52.531 C 260.023 52.594,259.770 52.571,259.532 52.480 C 259.293 52.390,258.382 52.129,257.507 51.901 C 256.632 51.672,255.804 51.440,255.667 51.384 C 255.529 51.329,255.342 51.266,255.250 51.245 C 255.158 51.224,254.558 51.052,253.917 50.862 C 253.275 50.672,252.188 50.392,251.500 50.239 C 250.813 50.086,250.166 49.893,250.063 49.811 C 249.960 49.728,249.754 49.708,249.604 49.765 C 249.455 49.822,249.333 49.794,249.333 49.703 C 249.333 49.612,249.127 49.496,248.875 49.446 C 247.194 49.107,244.753 48.475,244.676 48.357 C 244.586 48.221,244.459 48.195,243.583 48.131 C 243.354 48.114,243.167 48.046,243.167 47.980 C 243.167 47.877,242.385 47.664,241.027 47.398 C 240.812 47.356,240.325 47.209,239.943 47.071 C 239.166 46.790,236.849 46.103,236.083 45.926 C 235.641 45.824,234.647 45.413,233.794 44.980 C 233.635 44.899,233.409 44.833,233.292 44.833 C 233.175 44.833,232.874 44.643,232.623 44.410 C 232.372 44.177,232.167 44.029,232.167 44.081 C 232.167 44.132,231.895 43.929,231.562 43.629 C 231.230 43.329,230.887 43.104,230.800 43.129 C 230.713 43.154,230.685 43.104,230.739 43.018 C 230.792 42.932,230.770 42.837,230.689 42.806 C 230.491 42.731,229.667 41.076,229.667 40.756 C 229.667 40.615,229.610 40.500,229.542 40.500 C 229.473 40.500,229.402 40.256,229.383 39.958 C 229.365 39.660,229.326 39.192,229.297 38.917 C 229.268 38.642,229.340 38.130,229.458 37.781 C 229.576 37.431,229.629 37.075,229.576 36.989 C 229.524 36.903,229.541 36.833,229.616 36.833 C 229.691 36.833,229.858 36.593,229.989 36.299 C 230.228 35.759,231.428 34.500,231.704 34.500 C 231.786 34.500,231.799 34.406,231.733 34.292 C 231.667 34.177,231.673 34.137,231.746 34.203 C 231.819 34.269,232.076 34.183,232.317 34.012 C 234.814 32.234,239.660 31.377,243.750 31.991 M158.365 33.173 C 159.560 33.389,161.146 33.930,161.488 34.238 C 161.632 34.368,161.956 34.526,162.208 34.588 C 162.460 34.651,162.667 34.761,162.667 34.831 C 162.667 34.902,162.899 35.056,163.183 35.174 C 163.931 35.483,166.417 38.060,167.151 39.285 C 167.496 39.861,167.816 40.295,167.862 40.250 C 167.907 40.204,167.951 40.260,167.959 40.375 C 167.978 40.638,168.702 42.555,168.825 42.667 C 168.875 42.712,168.932 42.900,168.950 43.083 C 169.048 44.049,169.221 44.950,169.360 45.213 C 169.575 45.619,169.510 48.859,169.290 48.723 C 169.185 48.658,169.151 48.815,169.199 49.143 C 169.241 49.431,169.231 49.667,169.177 49.667 C 169.033 49.667,168.657 51.350,168.763 51.521 C 168.813 51.601,168.780 51.667,168.690 51.667 C 168.600 51.667,168.402 52.042,168.250 52.500 C 168.098 52.958,167.909 53.333,167.831 53.333 C 167.713 53.333,167.407 54.001,167.471 54.121 C 167.482 54.142,167.306 54.359,167.079 54.604 C 166.852 54.848,166.667 55.155,166.667 55.284 C 166.667 55.414,166.592 55.473,166.500 55.417 C 166.408 55.360,166.333 55.423,166.333 55.556 C 166.333 55.689,166.221 55.841,166.083 55.894 C 165.946 55.946,165.833 56.109,165.833 56.255 C 165.833 56.400,165.753 56.470,165.655 56.410 C 165.558 56.349,165.440 56.444,165.394 56.621 C 165.347 56.798,165.109 57.063,164.863 57.211 C 164.618 57.358,164.181 57.697,163.894 57.963 C 163.132 58.668,160.542 59.955,159.046 60.373 C 157.787 60.725,157.436 60.737,146.708 60.794 L 135.667 60.853 135.667 46.928 L 135.667 33.003 145.875 32.960 C 156.854 32.913,156.941 32.915,158.365 33.173  M -25 0 L -5 0 L -5 20 L -25 20 Z M 405 0 L 425 0 L 425 20 L 405 20 Z" stroke="none" fill="#cc1c4c" fill-rule="evenodd" transform="translate(30,0)"></path><path id="path1" d="M386.741 32.250 C 386.741 35.183,386.764 36.360,386.791 34.865 C 386.819 33.369,386.819 30.969,386.791 29.531 C 386.764 28.093,386.741 29.317,386.741 32.250 M287.818 66.471 C 287.919 66.660,288.084 66.865,288.184 66.927 C 288.315 67.008,288.314 66.943,288.182 66.696 C 288.081 66.507,287.916 66.301,287.816 66.239 C 287.685 66.158,287.686 66.224,287.818 66.471 M88.000 128.515 C 87.723 128.741,87.695 128.798,87.917 128.683 C 88.460 128.402,88.762 128.172,88.583 128.173 C 88.492 128.174,88.229 128.327,88.000 128.515  M -25 0 L -5 0 L -5 20 L -25 20 Z M 405 0 L 425 0 L 425 20 L 405 20 Z" stroke="none" fill="#d01c4c" fill-rule="evenodd" transform="translate(490,0)"></path><path id="path2" d="M386.741 32.250 C 386.741 35.183,386.764 36.360,386.791 34.865 C 386.819 33.369,386.819 30.969,386.791 29.531 C 386.764 28.093,386.741 29.317,386.741 32.250 M287.818 66.471 C 287.919 66.660,288.084 66.865,288.184 66.927 C 288.315 67.008,288.314 66.943,288.182 66.696 C 288.081 66.507,287.916 66.301,287.816 66.239 C 287.685 66.158,287.686 66.224,287.818 66.471 M88.000 128.515 C 87.723 128.741,87.695 128.798,87.917 128.683 C 88.460 128.402,88.762 128.172,88.583 128.173 C 88.492 128.174,88.229 128.327,88.000 128.515  M -25 0 L -5 0 L -5 20 L -25 20 Z M 405 0 L 425 0 L 425 20 L 405 20 Z" stroke="none" fill="#d01c4c" fill-rule="evenodd" transform="translate(950,0)"></path><path id="path3" d="M386.741 32.250 C 386.741 35.183,386.764 36.360,386.791 34.865 C 386.819 33.369,386.819 30.969,386.791 29.531 C 386.764 28.093,386.741 29.317,386.741 32.250 M287.818 66.471 C 287.919 66.660,288.084 66.865,288.184 66.927 C 288.315 67.008,288.314 66.943,288.182 66.696 C 288.081 66.507,287.916 66.301,287.816 66.239 C 287.685 66.158,287.686 66.224,287.818 66.471 M88.000 128.515 C 87.723 128.741,87.695 128.798,87.917 128.683 C 88.460 128.402,88.762 128.172,88.583 128.173 C 88.492 128.174,88.229 128.327,88.000 128.515  M -25 0 L -5 0 L -5 20 L -25 20 Z M 405 0 L 425 0 L 425 20 L 405 20 Z" stroke="none" fill="#d01c4c" fill-rule="evenodd" transform="translate(30,195)"></path><path id="path4" d="M386.741 32.250 C 386.741 35.183,386.764 36.360,386.791 34.865 C 386.819 33.369,386.819 30.969,386.791 29.531 C 386.764 28.093,386.741 29.317,386.741 32.250 M287.818 66.471 C 287.919 66.660,288.084 66.865,288.184 66.927 C 288.315 67.008,288.314 66.943,288.182 66.696 C 288.081 66.507,287.916 66.301,287.816 66.239 C 287.685 66.158,287.686 66.224,287.818 66.471 M88.000 128.515 C 87.723 128.741,87.695 128.798,87.917 128.683 C 88.460 128.402,88.762 128.172,88.583 128.173 C 88.492 128.174,88.229 128.327,88.000 128.515  M -25 0 L -5 0 L -5 20 L -25 20 Z M 405 0 L 425 0 L 425 20 L 405 20 Z" stroke="none" fill="#d01c4c" fill-rule="evenodd" transform="translate(490,195)"></path></g></svg>